<svg width="100%" height="200" viewBox="0 0 1200 200" xmlns="http://www.w3.org/2000/svg">
  <defs>
    <linearGradient id="wave1" x1="0" y1="0" x2="1" y2="0">
      <stop offset="0%" stop-color="#7a2e2e"/>
      <stop offset="50%" stop-color="#a5502e"/>
      <stop offset="100%" stop-color="#c8863b"/>
    </linearGradient>
    <linearGradient id="wave2" x1="0" y1="0" x2="1" y2="0">
      <stop offset="0%" stop-color="#c8863b"/>
      <stop offset="50%" stop-color="#8a3a2b"/>
      <stop offset="100%" stop-color="#5c1f2e"/>
    </linearGradient>
  </defs>
  <g opacity="0.35">
    <g>
      <path fill="url(#wave2)" d="M0,140 C150,110 300,170 450,140 C600,110 750,170 900,140 C1050,110 1200,170 1350,140 C1500,110 1650,170 1800,140 C1950,110 2100,170 2250,140 C2350,120 2400,140 2400,140 L2400,200 L0,200 Z"/>
      <animateTransform attributeName="transform" type="translate" from="0 0" to="-1200 0" dur="7s" repeatCount="indefinite"/>
    </g>
  </g>
  <g opacity="0.85">
    <g>
      <path fill="url(#wave1)" d="M0,155 C150,130 300,180 450,155 C600,130 750,180 900,155 C1050,130 1200,180 1350,155 C1500,130 1650,180 1800,155 C1950,130 2100,180 2250,155 C2350,140 2400,155 2400,155 L2400,200 L0,200 Z"/>
      <animateTransform attributeName="transform" type="translate" from="0 0" to="-1200 0" dur="5s" repeatCount="indefinite"/>
    </g>
  </g>
  <g fill="#f3e5d8">
    <circle cx="120" cy="152" r="2.2"><animate attributeName="opacity" values="0.2;1;0.2" dur="1.6s" repeatCount="indefinite"/></circle>
    <circle cx="420" cy="150" r="2"><animate attributeName="opacity" values="1;0.2;1" dur="2.1s" repeatCount="indefinite"/></circle>
    <circle cx="720" cy="153" r="2.4"><animate attributeName="opacity" values="0.3;1;0.3" dur="1.9s" repeatCount="indefinite"/></circle>
    <circle cx="1020" cy="151" r="2"><animate attributeName="opacity" values="1;0.2;1" dur="2.3s" repeatCount="indefinite"/></circle>
  </g>
  <text x="600" y="80" text-anchor="middle" font-family="'Courier New', monospace" font-size="40" font-weight="bold" fill="#f3e5d8" letter-spacing="3">ÁGATHA NATASHA</text>
  <text x="600" y="112" text-anchor="middle" font-family="'Courier New', monospace" font-size="17" fill="#c8863b">&gt; AI · Data Engineering · competitive programming</text>
</svg>
